<svg xmlns="http://www.w3.org/2000/svg" width="36" height="36" viewBox="0 0 36 36"><g transform="translate(-131 -52.768)"><g transform="translate(131 52.768)" fill="none" stroke="#fff" stroke-linecap="round" stroke-width="2.5"><path d="M4,0h8a4,4,0,0,1,4,4V16a0,0,0,0,1,0,0H4a4,4,0,0,1-4-4V4A4,4,0,0,1,4,0Z" stroke="none"/><path d="M4,1.25h8A2.75,2.75,0,0,1,14.75,4v9.5a1.25,1.25,0,0,1-1.25,1.25H4A2.75,2.75,0,0,1,1.25,12V4A2.75,2.75,0,0,1,4,1.25Z" fill="none"/></g><g transform="translate(151 72.768)" fill="none" stroke="#fff" stroke-linecap="round" stroke-width="2.5"><path d="M0,0H12a4,4,0,0,1,4,4v8a4,4,0,0,1-4,4H4a4,4,0,0,1-4-4V0A0,0,0,0,1,0,0Z" stroke="none"/><path d="M2.5,1.25H12A2.75,2.75,0,0,1,14.75,4v8A2.75,2.75,0,0,1,12,14.75H4A2.75,2.75,0,0,1,1.25,12V2.5A1.25,1.25,0,0,1,2.5,1.25Z" fill="none"/></g><g transform="translate(151 52.768)" fill="none" stroke="#fff" stroke-linecap="round" stroke-width="2.5"><path d="M4,0h8a4,4,0,0,1,4,4v8a4,4,0,0,1-4,4H0a0,0,0,0,1,0,0V4A4,4,0,0,1,4,0Z" stroke="none"/><path d="M4,1.25h8A2.75,2.75,0,0,1,14.75,4v8A2.75,2.75,0,0,1,12,14.75H2.5A1.25,1.25,0,0,1,1.25,13.5V4A2.75,2.75,0,0,1,4,1.25Z" fill="none"/></g><g transform="translate(131 72.768)" fill="none" stroke="#fff" stroke-linecap="round" stroke-width="2.5"><path d="M4,0H16a0,0,0,0,1,0,0V12a4,4,0,0,1-4,4H4a4,4,0,0,1-4-4V4A4,4,0,0,1,4,0Z" stroke="none"/><path d="M4,1.25h9.5A1.25,1.25,0,0,1,14.75,2.5V12A2.75,2.75,0,0,1,12,14.75H4A2.75,2.75,0,0,1,1.25,12V4A2.75,2.75,0,0,1,4,1.25Z" fill="none"/></g></g></svg>