<svg xmlns="http://www.w3.org/2000/svg" width="33.5" height="41.25" viewBox="0 0 33.5 41.25"><g transform="translate(-227.75 -46)"><path d="M10,0H21A10,10,0,0,1,31,10v7a0,0,0,0,1,0,0H0a0,0,0,0,1,0,0V10A10,10,0,0,1,10,0Z" transform="translate(229 69)" fill="none" stroke="#fff" stroke-linecap="square" stroke-linejoin="round" stroke-width="2.5"/><g transform="translate(235 46)" fill="none" stroke="#fff" stroke-width="2.5"><ellipse cx="9.5" cy="10" rx="9.5" ry="10" stroke="none"/><ellipse cx="9.5" cy="10" rx="8.25" ry="8.75" fill="none"/></g><g transform="translate(250.163 82.817) rotate(180)" fill="none" stroke-linecap="round" stroke-linejoin="round"><path d="M5.856-2.039l5.987,16.2H0Z" stroke="none"/><path d="M 5.866004467010498 0.8737611770629883 L 1.424787521362305 13.16056728363037 L 10.40662479400635 13.16056728363037 L 5.866004467010498 0.8737611770629883 M 5.85560941696167 -2.039212226867676 L 11.8422794342041 14.16056728363037 L -9.5367431640625e-07 14.16056728363037 L 5.85560941696167 -2.039212226867676 Z" stroke="none" fill="#fff"/></g><path d="M-47.963,60.52l4.06,4.06-3.137.369,1.292,3.045-6.939,4.626" transform="translate(296.609 9.601)" fill="none" stroke="#fff" stroke-linecap="round" stroke-linejoin="round" stroke-width="1"/><path d="M-48.321,60.52l-4.06,4.06,3.137.369-1.292,3.045,7.313,4.6" transform="translate(287.926 9.601)" fill="none" stroke="#fff" stroke-linecap="round" stroke-linejoin="round" stroke-width="1"/></g></svg>